<svg width="62" height="37" viewBox="0 0 62 37" fill="none" xmlns="http://www.w3.org/2000/svg">
<g filter="url(#filter0_f_6_377)">
<path d="M37.0982 30.078H26.5094L31.7039 33.5743L37.0982 30.078Z" fill="#FA9F42"/>
<path d="M2.63477 30.9421H26.1224L31.6895 34.6602L37.3978 30.9421H60.1737" stroke="#D0D0D0" stroke-width="1.99788" stroke-linecap="round"/>
<mask id="mask0_6_377" style="mask-type:alpha" maskUnits="userSpaceOnUse" x="1" y="0" width="61" height="31">
<rect x="1.13635" y="0.909027" width="60.1361" height="29.169" fill="#C4C4C4"/>
</mask>
<g mask="url(#mask0_6_377)">
<path d="M31.3043 50.129C43.1107 50.129 52.6816 40.9651 52.6816 29.661C52.6816 18.3568 43.1107 9.19298 31.3043 9.19298C19.4979 9.19298 9.927 18.3568 9.927 29.661C9.927 40.9651 19.4979 50.129 31.3043 50.129Z" fill="#FA9E42"/>
<path d="M31.3043 55.2938C46.0898 55.2938 58.0759 43.8176 58.0759 29.661C58.0759 15.5044 46.0898 4.02815 31.3043 4.02815C16.5188 4.02815 4.53271 15.5044 4.53271 29.661C4.53271 43.8176 16.5188 55.2938 31.3043 55.2938Z" stroke="#FA9E42" stroke-width="1.99788" stroke-linecap="round" stroke-dasharray="0.2 13.19"/>
<g filter="url(#filter1_f_6_377)">
<path d="M29.0208 25.6057C36.4989 21.8027 40.7292 15.4173 38.4693 11.3435C36.2094 7.26974 28.3151 7.05024 20.837 10.8533C13.3589 14.6563 9.12864 21.0417 11.3885 25.1155C13.6484 29.1893 21.5427 29.4088 29.0208 25.6057Z" fill="#F8E36F"/>
</g>
</g>
</g>
<defs>
<filter id="filter0_f_6_377" x="0.836713" y="2.23007" width="61.135" height="34.4259" filterUnits="userSpaceOnUse" color-interpolation-filters="sRGB">
<feFlood flood-opacity="0" result="BackgroundImageFix"/>
<feBlend mode="normal" in="SourceGraphic" in2="BackgroundImageFix" result="shape"/>
<feGaussianBlur stdDeviation="0.399576" result="effect1_foregroundBlur_6_377"/>
</filter>
<filter id="filter1_f_6_377" x="6.78427" y="4.14284" width="36.2892" height="28.1733" filterUnits="userSpaceOnUse" color-interpolation-filters="sRGB">
<feFlood flood-opacity="0" result="BackgroundImageFix"/>
<feBlend mode="normal" in="SourceGraphic" in2="BackgroundImageFix" result="shape"/>
<feGaussianBlur stdDeviation="1.99788" result="effect1_foregroundBlur_6_377"/>
</filter>
</defs>
</svg>
